<svg xmlns="http://www.w3.org/2000/svg" viewBox="0 0 32 32">
  <rect width="32" height="32" rx="6" fill="#FCFBF5"/>
  <g transform="translate(4, 3) scale(0.032)">
    <path fill="#141515" d="M356.723 151.445C357.432 151.574 359.091 151.955 359.567 152.414C389.819 181.542 416.255 219.782 441.339 252.88C446.569 247.919 476.669 219.813 480.919 218.477C482.374 218.779 484.08 219.348 485.424 220.011C503.397 228.863 521.309 237.863 539.323 246.635C542.19 248.031 549.138 250.376 545.419 254.675C542.647 256.339 487.882 259.564 480.244 259.984C478.113 266.956 475.894 278.759 474.263 286.224C471.164 300.257 467.979 314.27 464.708 328.264C464.005 331.302 459.956 351.364 457.911 352.571C448.638 358.05 437.801 362.935 428.061 367.701L361.41 400.236L342.489 409.415C339.632 410.796 335.233 412.805 332.581 414.386C327.824 417.221 323.047 429.62 319.066 432.843C314.909 436.207 303.904 440.933 298.815 443.32C302.104 445.931 305.418 448.51 308.756 451.057C332.488 468.804 364.719 477.592 394.276 473.624C427.273 469.194 456.221 452.227 476.105 425.436C492.066 403.929 498.951 378.102 498.83 351.367C498.801 345.087 497.587 337.92 496.641 331.653C495.27 322.226 490.326 313.633 487.163 304.878C486.359 302.65 489.302 299.052 491.589 299.144C495.839 299.437 498.012 305.981 499.517 309.221C505.81 322.777 508.055 336.641 508.46 351.313C509.739 385.67 497.059 419.083 473.306 443.941C449.371 468.758 416.61 483.129 382.14 483.934C347.677 484.576 314.365 471.533 289.501 447.662C285.96 449.646 264.207 460.859 261.744 460.609C260.283 459.862 259.726 458.899 258.712 457.601C262.185 451.244 271 438.391 275.309 432.305C243.447 384.978 244.393 322.691 280.416 277.84L261.707 209.436L256.814 191.648C255.793 188.037 254.678 184.45 253.868 180.785C253.144 177.511 253.517 176.328 256.929 175.793C261.182 177.447 324.832 229.971 330.82 236.014C332.235 229.746 334.338 222.71 336.065 216.481L345.142 183.848L350.715 164.017C351.668 160.655 352.62 157.09 353.799 153.8C354.314 152.361 355.358 152.037 356.723 151.445Z"/>
    <path fill="#E5365F" d="M267.38 195.047C269.445 195.929 283.87 208.549 287.204 211.299C321.849 240.024 356.265 269.024 390.45 298.295C388.144 302.822 384.412 308.554 381.711 312.967L366.307 338.072C361.476 346.291 356.114 354.69 351.489 362.924C343.577 359.307 335.255 354.856 327.384 350.991C321.386 348.045 314.011 344.764 308.361 341.529C304.15 324.342 297.988 305.45 292.912 288.302C286.981 267.885 281.266 247.406 275.769 226.868C273.047 216.841 269.473 204.991 267.38 195.047Z"/>
    <path fill="#FDA02D" d="M359.924 165.171C362.555 167.068 368.95 175.139 371.469 177.98C390.367 199.296 407.087 222.449 424.118 245.247C427.543 249.833 430.832 254.527 434.505 258.92C424.979 266.953 415.296 275.962 406.07 284.348L397.27 292.225C378.267 275.231 357.443 259.056 338.332 242.222C340.559 235.224 342.647 226.498 344.677 219.264L359.924 165.171Z"/>
    <path fill="#FCFBF5" d="M283.509 289.591L283.905 289.798C284.888 291.654 287.134 300.24 287.943 302.998L297.456 335.674C300.731 346.998 300.441 348.674 311.929 353.578C315.687 355.182 321.483 358.225 325.176 360.261C313.691 375.194 301.082 394.388 290.274 410.037C287.239 414.702 284.101 419.18 281.096 423.92C272.902 407.548 269.292 403.481 265.026 384.199C258.934 357.64 262.184 329.793 274.228 305.351C277.134 299.49 279.987 295.106 283.509 289.591Z"/>
    <path fill="#1EB3B0" d="M397.825 303.21C403.176 308.648 410.544 314.599 416.38 319.71C426.924 329.04 437.526 338.305 448.186 347.503C423.762 360.003 397.813 372.329 373.102 384.331L350.406 395.643C346.673 397.486 342.039 399.504 338.542 401.557C344.819 390.894 351.22 380.782 357.625 370.235L397.825 303.21Z"/>
    <path fill="#FEC638" d="M476.494 233.482L476.689 233.737C476.249 236.544 475.092 240.991 474.445 243.934L469.335 266.916L452.93 339.929C444.605 332.514 436.217 325.171 427.767 317.899C420.461 311.122 412.261 304.335 404.746 297.608C415.589 288.559 425.86 278.399 436.6 269.168C450.118 257.55 463.058 245.193 476.494 233.482Z"/>
    <path fill="#0993A9" d="M333.514 364.129C335.636 364.75 345.265 369.972 347.378 371.209C342.16 379.897 317.289 422.531 313.364 425.714C309.122 429.152 293.024 436.109 287.116 438.99C283.687 440.789 280.2 442.368 276.688 443.994C295.257 417.044 314.606 390.787 333.514 364.129Z"/>
    <path fill="#FB5A34" d="M486.471 230.616C487.776 231.193 489.127 232.043 490.44 232.674C501.52 238.003 512.518 243.762 523.713 248.825C521.341 248.896 518.971 248.996 516.603 249.125C514.367 249.372 511.534 249.411 509.256 249.496C500.227 249.834 491.199 250.756 482.181 251.134C483.531 244.274 485.116 237.492 486.471 230.616Z"/>
  </g>
</svg>
