<?xml version="1.0" encoding="UTF-8" standalone="no"?><!DOCTYPE svg PUBLIC "-//W3C//DTD SVG 1.1//EN" "http://www.w3.org/Graphics/SVG/1.1/DTD/svg11.dtd"><svg width="100%" height="100%" viewBox="0 0 5812 6570" version="1.1" xmlns="http://www.w3.org/2000/svg" xmlns:xlink="http://www.w3.org/1999/xlink" xml:space="preserve" xmlns:serif="http://www.serif.com/" style="fill-rule:evenodd;clip-rule:evenodd;stroke-linejoin:round;stroke-miterlimit:2;"><ellipse cx="2562.158" cy="4076.497" rx="2399.531" ry="2338.572" style="fill:#fff;"/><path d="M2062.02,0c14.008,2.549 46.785,10.076 56.19,19.145c597.695,575.488 1119.997,1331.004 1615.586,1984.928c103.33,-98.016 698.022,-653.312 781.99,-679.707c28.747,5.967 62.453,17.209 89.006,30.308c355.096,174.891 708.987,352.706 1064.894,526.016c56.644,27.581 193.917,73.912 120.44,158.848c-54.767,32.876 -1136.77,96.593 -1287.676,104.891c-42.103,137.747 -85.944,370.942 -118.168,518.429c-61.228,277.253 -124.154,554.111 -188.78,830.593c-13.889,60.022 -93.886,456.392 -134.29,480.238c-183.209,108.25 -397.317,204.764 -589.753,298.927l-1316.838,642.801l-373.826,181.351c-56.446,27.285 -143.358,66.977 -195.754,98.213c-93.985,56.012 -188.365,300.981 -267.019,364.659c-82.131,66.463 -299.559,159.836 -400.103,206.996c64.981,51.586 130.457,102.54 196.406,152.862c468.878,350.631 1105.673,524.258 1689.636,445.861c651.929,-87.524 1223.86,-422.745 1616.713,-952.06c315.345,-424.918 451.373,-935.188 448.983,-1463.397c-0.573,-124.075 -24.558,-265.675 -43.249,-389.494c-27.087,-186.251 -124.767,-356.025 -187.259,-528.999c-15.885,-44.019 42.261,-115.105 87.445,-113.288c83.968,5.789 126.901,135.08 156.635,199.093c124.332,267.829 168.687,541.743 176.689,831.62c25.269,678.798 -225.252,1338.946 -694.545,1830.071c-472.889,490.315 -1120.155,774.245 -1801.186,790.15c-680.893,12.684 -1339.045,-245.009 -1830.288,-716.633c-69.96,39.198 -499.739,260.736 -548.401,255.797c-28.865,-14.759 -39.87,-33.785 -59.904,-59.43c68.617,-125.597 242.777,-379.536 327.91,-499.778c-629.504,-935.049 -610.814,-2165.667 100.9,-3051.797l-369.638,-1351.472l-96.672,-351.441c-20.172,-71.343 -42.201,-142.212 -58.205,-214.623c-14.304,-64.685 -6.935,-88.058 60.477,-98.628c84.027,32.678 1341.574,1070.406 1459.88,1189.799c27.956,-123.838 69.506,-262.85 103.627,-385.918l179.336,-644.737l110.107,-391.805c18.829,-66.424 37.637,-136.858 60.931,-201.859c10.175,-28.431 30.801,-34.832 57.77,-46.528Z" style="fill:#141515;fill-rule:nonzero;"/><path d="M296.852,861.454c40.799,17.426 325.796,266.762 391.667,321.094c684.488,567.526 1364.453,1140.485 2039.853,1718.798c-45.56,89.441 -119.294,202.689 -172.658,289.878l-304.34,496.005c-95.447,162.384 -201.385,328.325 -292.762,491.006c-156.319,-71.462 -320.739,-159.401 -476.248,-235.763c-118.504,-58.205 -264.213,-123.028 -375.841,-186.943c-83.198,-339.567 -204.942,-712.82 -305.229,-1051.617c-117.18,-403.383 -230.092,-807.991 -338.698,-1213.764c-53.779,-198.106 -124.391,-432.228 -165.743,-628.694Z" style="fill:#e5365f;fill-rule:nonzero;"/><path d="M2125.263,271.187c51.981,37.479 178.329,196.94 228.097,253.07c373.372,421.145 703.712,878.583 1040.197,1329.008c67.668,90.607 132.65,183.347 205.218,270.14c-188.207,158.71 -379.516,336.702 -561.796,502.386l-173.863,155.628c-375.446,-335.754 -786.87,-655.327 -1164.45,-987.92c43.999,-138.261 85.252,-310.662 125.359,-453.586l301.238,-1068.727Z" style="fill:#fda02d;fill-rule:nonzero;"/><path d="M615.516,2729.379l7.824,4.09c19.421,36.669 63.796,206.305 79.78,260.795l187.95,645.587c64.705,223.731 58.975,256.844 285.946,353.733c74.248,31.691 188.76,91.812 261.724,132.037c-226.912,295.034 -476.03,674.254 -689.566,983.435c-59.963,92.167 -121.961,180.64 -181.332,274.289c-161.891,-323.465 -233.214,-403.818 -317.498,-784.776c-120.361,-524.732 -56.15,-1074.911 181.806,-1557.816c57.414,-115.797 113.782,-202.413 183.367,-311.374Z" style="fill:#fcfbf5;fill-rule:nonzero;"/><path d="M2874.081,2998.453c105.721,107.44 251.292,225.015 366.595,325.994c208.32,184.335 417.786,367.385 628.398,549.112c-482.55,246.965 -995.23,490.492 -1483.45,727.618l-448.41,223.494c-73.754,36.413 -165.309,76.283 -234.4,116.844c124.016,-210.671 250.482,-410.456 377.027,-618.835l794.24,-1324.227Z" style="fill:#1eb3b0;fill-rule:nonzero;"/><path d="M4428.361,1620.822l3.853,5.038c-8.693,55.458 -31.552,143.319 -44.335,201.464l-100.959,454.06l-324.117,1442.533c-164.479,-146.5 -330.202,-291.577 -497.151,-435.251c-144.346,-133.895 -306.355,-267.987 -454.831,-400.894c214.227,-178.783 417.154,-379.516 629.346,-561.895c267.078,-229.539 522.736,-473.679 788.194,-705.056Z" style="fill:#fec638;fill-rule:nonzero;"/><path d="M1603.475,4202.042c41.925,12.269 232.167,115.441 273.914,139.881c-103.093,171.651 -594.475,1013.979 -672.022,1076.867c-83.81,67.925 -401.862,205.376 -518.587,262.297c-67.747,35.543 -136.641,66.74 -206.028,98.865c366.872,-532.457 749.154,-1051.222 1122.723,-1577.909Z" style="fill:#0993a9;fill-rule:nonzero;"/><path d="M4625.479,1564.198c25.783,11.4 52.475,28.194 78.416,40.66c218.91,105.286 436.2,219.068 657.382,319.099c-46.864,1.403 -93.689,3.378 -140.474,5.927c-44.177,4.88 -100.149,5.651 -145.156,7.33c-178.388,6.678 -356.756,24.894 -534.926,32.362c26.672,-135.534 57.987,-269.528 84.758,-405.378Z" style="fill:#fb5a34;fill-rule:nonzero;"/></svg>