<?xml version="1.0" encoding="utf-8" ?>
<svg xmlns="http://www.w3.org/2000/svg"
  xmlns:xlink="http://www.w3.org/1999/xlink" width="3518" height="3571" viewBox="0 0 3518 3571">
  <path fill="#FCFBF5" transform="scale(4.74173 4.74173)" d="M0 0L742 0L742 753L0 753L0 0Z"/>
  <path fill="#141515" transform="scale(4.74173 4.74173)" d="M356.723 151.445C357.432 151.574 359.091 151.955 359.567 152.414C389.819 181.542 416.255 219.782 441.339 252.88C446.569 247.919 476.669 219.813 480.919 218.477C482.374 218.779 484.08 219.348 485.424 220.011C503.397 228.863 521.309 237.863 539.323 246.635C542.19 248.031 549.138 250.376 545.419 254.675C542.647 256.339 487.882 259.564 480.244 259.984C478.113 266.956 475.894 278.759 474.263 286.224C471.164 300.257 467.979 314.27 464.708 328.264C464.005 331.302 459.956 351.364 457.911 352.571C448.638 358.05 437.801 362.935 428.061 367.701L361.41 400.236L342.489 409.415C339.632 410.796 335.233 412.805 332.581 414.386C327.824 417.221 323.047 429.62 319.066 432.843C314.909 436.207 303.904 440.933 298.815 443.32C302.104 445.931 305.418 448.51 308.756 451.057C332.488 468.804 364.719 477.592 394.276 473.624C427.273 469.194 456.221 452.227 476.105 425.436C492.066 403.929 498.951 378.102 498.83 351.367C498.801 345.087 497.587 337.92 496.641 331.653C495.27 322.226 490.326 313.633 487.163 304.878C486.359 302.65 489.302 299.052 491.589 299.144C495.839 299.437 498.012 305.981 499.517 309.221C505.81 322.777 508.055 336.641 508.46 351.313C509.739 385.67 497.059 419.083 473.306 443.941C449.371 468.758 416.61 483.129 382.14 483.934C347.677 484.576 314.365 471.533 289.501 447.662C285.96 449.646 264.207 460.859 261.744 460.609C260.283 459.862 259.726 458.899 258.712 457.601C262.185 451.244 271 438.391 275.309 432.305C243.447 384.978 244.393 322.691 280.416 277.84L261.707 209.436L256.814 191.648C255.793 188.037 254.678 184.45 253.868 180.785C253.144 177.511 253.517 176.328 256.929 175.793C261.182 177.447 324.832 229.971 330.82 236.014C332.235 229.746 334.338 222.71 336.065 216.481L345.142 183.848L350.715 164.017C351.668 160.655 352.62 157.09 353.799 153.8C354.314 152.361 355.358 152.037 356.723 151.445Z"/>
  <path fill="#E5365F" transform="scale(4.74173 4.74173)" d="M267.38 195.047C269.445 195.929 283.87 208.549 287.204 211.299C321.849 240.024 356.265 269.024 390.45 298.295C388.144 302.822 384.412 308.554 381.711 312.967L366.307 338.072C361.476 346.291 356.114 354.69 351.489 362.924C343.577 359.307 335.255 354.856 327.384 350.991C321.386 348.045 314.011 344.764 308.361 341.529C304.15 324.342 297.988 305.45 292.912 288.302C286.981 267.885 281.266 247.406 275.769 226.868C273.047 216.841 269.473 204.991 267.38 195.047Z"/>
  <path fill="#FDA02D" transform="scale(4.74173 4.74173)" d="M359.924 165.171C362.555 167.068 368.95 175.139 371.469 177.98C390.367 199.296 407.087 222.449 424.118 245.247C427.543 249.833 430.832 254.527 434.505 258.92C424.979 266.953 415.296 275.962 406.07 284.348L397.27 292.225C378.267 275.231 357.443 259.056 338.332 242.222C340.559 235.224 342.647 226.498 344.677 219.264L359.924 165.171Z"/>
  <path fill="#FCFBF5" transform="scale(4.74173 4.74173)" d="M283.509 289.591L283.905 289.798C284.888 291.654 287.134 300.24 287.943 302.998L297.456 335.674C300.731 346.998 300.441 348.674 311.929 353.578C315.687 355.182 321.483 358.225 325.176 360.261C313.691 375.194 301.082 394.388 290.274 410.037C287.239 414.702 284.101 419.18 281.096 423.92C272.902 407.548 269.292 403.481 265.026 384.199C258.934 357.64 262.184 329.793 274.228 305.351C277.134 299.49 279.987 295.106 283.509 289.591Z"/>
  <path fill="#1EB3B0" transform="scale(4.74173 4.74173)" d="M397.825 303.21C403.176 308.648 410.544 314.599 416.38 319.71C426.924 329.04 437.526 338.305 448.186 347.503C423.762 360.003 397.813 372.329 373.102 384.331L350.406 395.643C346.673 397.486 342.039 399.504 338.542 401.557C344.819 390.894 351.22 380.782 357.625 370.235L397.825 303.21Z"/>
  <path fill="#FEC638" transform="scale(4.74173 4.74173)" d="M476.494 233.482L476.689 233.737C476.249 236.544 475.092 240.991 474.445 243.934L469.335 266.916L452.93 339.929C444.605 332.514 436.217 325.171 427.767 317.899C420.461 311.122 412.261 304.335 404.746 297.608C415.589 288.559 425.86 278.399 436.6 269.168C450.118 257.55 463.058 245.193 476.494 233.482Z"/>
  <path fill="#0993A9" transform="scale(4.74173 4.74173)" d="M333.514 364.129C335.636 364.75 345.265 369.972 347.378 371.209C342.16 379.897 317.289 422.531 313.364 425.714C309.122 429.152 293.024 436.109 287.116 438.99C283.687 440.789 280.2 442.368 276.688 443.994C295.257 417.044 314.606 390.787 333.514 364.129Z"/>
  <path fill="#FB5A34" transform="scale(4.74173 4.74173)" d="M486.471 230.616C487.776 231.193 489.127 232.043 490.44 232.674C501.52 238.003 512.518 243.762 523.713 248.825C521.341 248.896 518.971 248.996 516.603 249.125C514.367 249.372 511.534 249.411 509.256 249.496C500.227 249.834 491.199 250.756 482.181 251.134C483.531 244.274 485.116 237.492 486.471 230.616Z"/>
  <path fill="#141515" transform="scale(4.74173 4.74173)" d="M180.294 510.831C190.063 510.341 215.676 510.036 224.037 512.951C229.611 514.849 234.185 518.912 236.727 524.222C242.032 535.33 239.456 550.567 228.778 557.531C226.767 558.843 224.775 559.758 222.599 560.773C225.023 564.827 239.115 585.018 238.948 587.93C237.518 588.96 228.411 588.568 226.143 588.556C224.141 588.13 220.644 581.904 219.331 579.89L207.581 561.898C202.466 562.015 197.141 561.885 192.009 561.825C191.869 570.632 192.183 579.449 191.859 588.289C189.072 588.503 180.857 588.995 178.578 587.901C178.13 586.363 178.045 584.824 177.99 583.232C177.795 577.644 177.527 513.823 178.252 512.323C178.796 511.199 179.17 511.224 180.294 510.831Z"/>
  <path fill="#FCFBF5" transform="scale(4.74173 4.74173)" d="M191.979 523.185C198.899 523.156 206.682 522.674 213.492 523.304C224.8 524.349 228.652 537.718 221.217 545.798C214.256 551.381 200.993 549.855 192.015 549.815L191.979 523.185Z"/>
  <path fill="#141515" transform="scale(4.74173 4.74173)" d="M394.223 510.839C398.439 510.519 403.194 510.595 407.408 510.879C407.81 527.364 407.263 544.643 407.461 561.22C407.528 566.853 407.851 583.688 407.225 588.388C403.28 588.652 398.406 588.523 394.39 588.52C389.426 582.881 383.989 575.578 379.273 569.613C369.563 557.413 360.063 545.049 350.775 532.525C351.082 548.224 350.834 564.003 351.013 579.71C351.047 582.646 350.945 585.507 350.616 588.431C346.718 588.613 341.521 588.559 337.682 588.209C337.22 582.668 337.05 513.853 337.979 510.845C341.566 510.559 346.686 510.654 350.231 510.784C353.26 513.637 362.289 525.91 365.216 529.705L394.141 566.947C393.539 551.594 394.109 536.022 393.875 520.648C393.826 517.416 393.86 514.046 394.223 510.839Z"/>
  <path fill="#141515" transform="scale(4.74173 4.74173)" d="M434.631 510.86C437.548 510.635 443.768 510.213 446.204 511.501C447.585 514.113 447.062 541.927 447.06 547.09C453.266 539.739 460.489 532.188 466.898 524.94C469.823 521.632 476.858 513.592 479.895 511.142C484.019 510.482 492.795 510.799 497.046 511.266C494.591 514.79 489.911 519.525 486.95 522.83C479.954 530.639 472.474 538.219 465.642 546.171C471.106 553.709 478.129 562.223 483.949 569.649C486.225 572.562 497.31 585.28 497.025 587.872C495.541 589.019 484.301 588.541 481.635 588.516C473.355 578.17 463.217 566.677 455.502 556.198L447.091 565.48C446.821 572.609 447.478 581.484 446.802 588.378C442.949 588.676 437.09 588.546 433.268 588.311C432.754 583.317 433.018 574.589 433.024 569.321L433 537.035C432.996 529.406 432.857 520.081 433.175 512.386C433.211 511.536 433.989 511.243 434.631 510.86Z"/>
  <path fill="#141515" transform="scale(4.74173 4.74173)" d="M570.024 510.753C584.371 510.249 583.671 508.461 583.484 523.019L583.522 547.212C583.532 560.991 583.76 575.556 571.345 584.296C557.955 593.722 532.411 592.623 522.866 577.992C520.574 574.479 518.826 570.523 518.308 566.361C516.941 555.371 517.883 544.076 517.587 533.013C517.518 528.446 517.348 514.556 517.967 510.748C520.239 510.684 529.129 510.039 530.837 511.457C531.675 512.153 531.38 518.856 531.382 520.576L531.362 546.714C531.331 558.867 529.5 575.239 546.174 577.825C557.092 579.519 566.893 574.545 569.024 563.057C569.895 558.358 569.729 554.201 569.718 549.365L569.645 525.417C569.633 521.031 569.341 515.007 570.024 510.753Z"/>
  <path fill="#141515" transform="scale(4.74173 4.74173)" d="M263.698 510.893C266.03 510.799 268.608 510.836 270.954 510.905C284.971 511.314 299.444 510.374 313.412 511.096C313.578 513.544 314.14 520.403 312.63 522.205C309.324 523.385 282.816 522.907 276.823 522.962L276.835 543.799C283.959 543.764 301.187 543.255 307.719 544.091C307.594 547.895 307.592 551.702 307.714 555.506C301.298 556.094 292.7 555.366 286.102 555.615C283.203 555.724 280.218 555.351 277.299 555.86C276.601 557.102 276.853 557.132 276.829 558.775L276.851 576.653L299.726 576.585C304.024 576.575 310.307 576.367 314.395 577.021C314.64 579.496 315.249 586.283 313.675 588.158C310.291 588.73 297.912 588.586 293.94 588.519C284.039 588.352 273.01 588.801 263.21 588.358C262.494 580.089 262.929 563.834 262.951 555.397C262.967 549.549 262.169 514.371 263.698 510.893Z"/>
</svg>
